<?xml version="1.0" encoding="utf-8"?>
<!-- Generator: Adobe Illustrator 23.0.1, SVG Export Plug-In . SVG Version: 6.00 Build 0)  -->
<svg version="1.1" id="Layer_1" xmlns="http://www.w3.org/2000/svg" xmlns:xlink="http://www.w3.org/1999/xlink" x="0px" y="0px"
	 viewBox="0 0 1000 1000" style="enable-background:new 0 0 1000 1000;" xml:space="preserve">
<style type="text/css">
	.st0{fill:#B5DDD4;}
	.st1{fill:#84AF98;}
	.st2{fill:#5F505E;}
	.st3{fill:#A59547;}
	.st4{fill:#927A35;}
	.st5{fill:#776774;}
	.st6{fill:#4C404B;}
	.st7{fill:#F47567;}
	.st8{fill:#FF917B;}
	.st9{fill:#29150F;}
	.st10{fill:#593A2E;}
	.st11{fill:#333333;}
	.st12{fill:#FFFFFF;}
	.st13{fill:none;stroke:#29150F;stroke-width:2.1519;stroke-linecap:round;stroke-linejoin:round;stroke-miterlimit:10;}
	.st14{fill:none;stroke:#DB4242;stroke-width:2.1519;stroke-linecap:round;stroke-linejoin:round;stroke-miterlimit:10;}
	.st15{fill:#FCA590;}
	.st16{fill:#D8C5BF;}
	.st17{fill:#837984;}
	.st18{fill:#CCB3AC;}
	.st19{fill:#BCAF8E;}
	.st20{fill:#D3CCA5;}
	.st21{fill:#E6E6BE;}
	.st22{fill:#D28148;}
	.st23{fill:#59442C;}
	.st24{fill:#2F1A10;}
	.st25{fill:#907B31;}
	.st26{fill:#715A24;}
	.st27{fill:#896867;}
	.st28{fill:#AF9590;}
	.st29{fill:#E07127;}
	.st30{fill:#5B432C;}
	.st31{fill:#F8932A;}
	.st32{fill:#7C6A52;}
	.st33{fill:#F9AB4E;}
	.st34{fill:#CCB3AB;}
	.st35{fill:#F79427;}
	.st36{fill:#DBC6BD;}
	.st37{fill:#44331C;}
	.st38{fill:none;stroke:#2F1A10;stroke-width:2.1519;stroke-linecap:round;stroke-linejoin:round;stroke-miterlimit:10;}
	.st39{fill:#A39D4F;}
	.st40{fill:#EF8425;}
	.st41{fill:#F79429;}
	.st42{fill:#190B09;}
	.st43{fill:none;stroke:#29150F;stroke-width:2.8692;stroke-linecap:round;stroke-linejoin:round;stroke-miterlimit:10;}
	.st44{fill:#FCA338;}
	.st45{fill:#D68149;}
	.st46{fill:#3D313B;}
	.st47{fill:#4F414D;}
	.st48{fill:#3F3744;}
	.st49{fill:#5F5260;}
	.st50{fill:#FFE19F;}
	.st51{fill:#FCD772;}
	.st52{fill:#F0FCF7;}
	.st53{fill:#61AD82;}
	.st54{fill:#CCE5D6;}
	.st55{clip-path:url(#XMLID_2_);}
	.st56{fill:#2D1B0F;}
	.st57{fill:none;stroke:#2D1B0F;stroke-width:2.8692;stroke-linecap:round;stroke-linejoin:round;stroke-miterlimit:10;}
	.st58{fill:#F3DFC3;}
	.st59{fill:#E5CDB7;}
	.st60{fill:#BCB3A6;}
	.st61{fill:#DBD8CC;}
	.st62{fill:#F2F1E7;}
	.st63{fill:#B99A4C;}
	.st64{fill:#DDD083;}
	.st65{fill:#D1AD93;}
	.st66{fill:#D84848;}
	.st67{fill:none;stroke:#FCA338;stroke-width:5.7384;stroke-miterlimit:10;}
</style>
<g id="XMLID_347_">
	<g id="XMLID_345_">
		<path id="XMLID_318_" class="st0" d="M120.3,269.9c-4.1,2-8,4.3-11.7,6.8c-55.3,37.4-84.3,108.4-89.2,173
			c-0.5,6.6-0.7,13.3-0.6,20c1.2,77.6,47.6,154.6,118.7,185.8c71.1,31.2,163.4,10.3,209-52.6c21.8-30.1,32.4-71.1,16.9-104.9
			c-21.7-47.2-79.2-61.6-106-104.6c-23.3-37.4-3.8-90.8-41.9-120.4C188.7,252.4,149.3,255.6,120.3,269.9z"/>
		<g id="XMLID_153_">
			<path id="XMLID_129_" class="st1" d="M384.5,643.6c0,7.6-73.2,13.8-163.5,13.8c-90.3,0-163.5-6.2-163.5-13.8
				c0-7.6,73.2-13.8,163.5-13.8C311.4,629.8,384.5,636,384.5,643.6z"/>
			<g id="XMLID_201_">
				<g id="XMLID_194_">
					<g id="XMLID_193_">
						<polygon id="XMLID_148_" class="st2" points="122.4,636.7 116.3,636.7 116.3,523.8 102.4,463.9 108.5,463.9 122.4,523.5 
													"/>
						<polygon id="XMLID_150_" class="st2" points="183.4,633.7 177.3,633.7 177.3,522.8 163.4,463.9 169.6,463.9 183.4,522.5 
													"/>
						<rect id="XMLID_149_" x="163.4" y="531" class="st2" width="6.1" height="105.7"/>
						<rect id="XMLID_152_" x="236.6" y="531" class="st2" width="6.1" height="105.7"/>
						<g id="XMLID_178_">
							<path id="XMLID_146_" class="st3" d="M154.3,480.1H99.5c-9.7,0-19.5-8.2-21.9-18.2l-13.1-56.1c-2.2-9.5,3.6-17.1,13-17.1
								h52.7c9.4,0,19,7.6,21.6,17.1l15.2,56.1C169.7,471.9,164,480.1,154.3,480.1z"/>
							<path id="XMLID_165_" class="st4" d="M155.1,480.1h-51.1c-9.1,0-18.2-8.2-20.4-18.2l-12.3-56.1c-2.1-9.5,3.4-17.1,12.1-17.1
								h49.2c8.7,0,17.8,7.6,20.1,17.1l14.2,56.1C169.5,471.9,164.2,480.1,155.1,480.1z"/>
						</g>
					</g>
					<g id="XMLID_192_">
						<path id="XMLID_147_" class="st3" d="M251.4,535H117.8c-4.3,0-7.8-3.5-7.8-7.8l0,0c0-4.3,3.5-7.8,7.8-7.8h133.7
							c4.3,0,7.8,3.5,7.8,7.8l0,0C259.3,531.5,255.8,535,251.4,535z"/>
						<path id="XMLID_179_" class="st4" d="M251.4,535H128.7c-4.3,0-7.8-3.5-7.8-7.8l0,0c0-4.3,3.5-7.8,7.8-7.8h122.7
							c4.3,0,7.8,3.5,7.8,7.8l0,0C259.3,531.5,255.8,535,251.4,535z"/>
					</g>
				</g>
				<g id="XMLID_188_">
					<path id="XMLID_118_" class="st2" d="M126.7,353.5c0,0-25-12.3-27.9,13c-2,17.5,5.8,84.2,17.2,87.5c11.4,3.2,17.1-28,17.1-28
						L126.7,353.5z"/>
					<path id="XMLID_116_" class="st5" d="M135.5,418.3c0,0-22.9-11.7-33.1,8c-0.8,7.5,2.6,17.6,8,21.2c0,0,17.2-9.5,23.9-9.5
						L135.5,418.3z"/>
				</g>
				<g id="XMLID_199_">
					<g id="XMLID_198_">
						<g id="XMLID_190_">
							<path id="XMLID_139_" class="st6" d="M180.6,375.2l2.3-19.6c0,0,9.3-3.5,16.2,2c6.8,5.6,27,57.3,27,57.3l-24,23.8
								L180.6,375.2z"/>
							<path id="XMLID_138_" class="st5" d="M193.2,431.2c-0.1-0.9,10.7-30.7,37-25.4c26.3,5.3,16.4,18.4,16.4,18.4l-43.2,23.3
								L193.2,431.2z"/>
						</g>
						<g id="XMLID_189_">
							<path id="XMLID_113_" class="st2" d="M137.9,355c0,0-19.2-4.4-28.7,1.6c-4.3,2.7,7.2,26.3,13.3,52.7
								c7.5,32.3,10.6,68.4,10.6,68.4l79.7-12c0,0-17.6-65.3-18.3-89c-0.6-23.7-6.2-22.5-21.3-18.9C158.1,361.3,137.9,355,137.9,355
								z"/>
							<path id="XMLID_115_" class="st7" d="M136.4,353.4c0,0,12.5,33.2,26.3,29.8c13.9-3.4,15.4-33.8,15.4-33.8L136.4,353.4z"/>
						</g>
						<g id="XMLID_186_">
							<path id="XMLID_112_" class="st7" d="M197.5,332.9c2,3.8-1.1,9.3-6.9,12.4c-5.8,3-12.1,2.4-14.1-1.4c-2-3.8,1.1-9.3,6.9-12.4
								C189.2,328.5,195.5,329.2,197.5,332.9z"/>
							<path id="XMLID_104_" class="st8" d="M187.4,334.7c1.3,21.5-9.5,39.4-26.2,40.4c-16.7,1-33-15.2-34.3-36.6
								c-1.3-21.5,11.3-38.2,27.9-40.8C187.5,292.6,186.1,313.2,187.4,334.7z"/>
							<g id="XMLID_110_">
								<path id="XMLID_122_" class="st9" d="M194.2,316c-2.4,2.1-4.2,3.5-4.2,3.5l-2.4,18.4c-0.8-8.5-1.6-16.8-3.6-20.6
									c0,0-41,2.4-44.5,2.7c0,0-1.8,14.5-6.6,21.3h-8c0,0-7.4-21.8-5.7-32.8c1.7-11.1,8.2-23,11.4-21.7c3.2,1.3,1.7,8.8,1.7,8.8
									s4.3-3.6,10.1-8c0,0,0.1,0,0.1,0c10.8-8.2,27.1-19.5,32.1-17c7.3,3.6-0.5,14.8-1,15.5c1.1-0.4,23.1-8.7,26.6-3
									c3.5,5.8-11.6,20.2-11.6,20.2s13.9-3.2,15.5,0.4C205.1,305.9,198.7,312,194.2,316z"/>
								<path id="XMLID_120_" class="st10" d="M194.2,316c1.5-3,3-6.6,2.5-8.6c-0.9-4-16,0.9-16,0.9s15.1-17.1,12.8-21.2
									c-2.3-4.1-26.8,5-26.8,5s5.7-11.5,1.3-14.1c-2.8-1.7-16.4,4.7-25.6,9.5c10.8-8.2,27.1-19.5,32.1-17c7.3,3.6-0.5,14.8-1,15.5
									c1.1-0.4,23.1-8.7,26.6-3c3.5,5.8-11.6,20.2-11.6,20.2s13.9-3.2,15.5,0.4C205.1,305.9,198.7,312,194.2,316z"/>
							</g>
							<path id="XMLID_108_" class="st8" d="M136.2,345.7c-1.3,4.1-7.4,5.8-13.6,3.8c-6.2-2-10.3-6.9-9-10.9
								c1.3-4.1,7.4-5.8,13.6-3.8C133.5,336.7,137.5,341.6,136.2,345.7z"/>
							<g id="XMLID_185_">
								<path id="XMLID_140_" class="st11" d="M152.9,349.4c0,1.6-0.5,2.9-1.2,2.9c-0.7,0-1.2-1.3-1.2-2.9c0-1.6,0.5-2.9,1.2-2.9
									C152.3,346.6,152.9,347.9,152.9,349.4z"/>
								<path id="XMLID_142_" class="st11" d="M179.4,347.2c0,1.6-0.5,2.9-1.2,2.9c-0.7,0-1.2-1.3-1.2-2.9c0-1.6,0.5-2.9,1.2-2.9
									C178.9,344.4,179.4,345.7,179.4,347.2z"/>
								<path id="XMLID_141_" class="st12" d="M170.2,360.5c0,0-11.1,2.5-17.4-3.1c0,0-1.1,6.7,6.4,8.1
									C166.7,366.8,170.2,360.5,170.2,360.5z"/>
								<path id="XMLID_143_" class="st13" d="M175.4,332.2c2.4-1.5,5.9-1,7.8,1.1"/>
								<path id="XMLID_144_" class="st13" d="M154.1,333.7c-3-1.4-7-0.6-9.2,1.9"/>
								<path id="XMLID_145_" class="st14" d="M170.4,347.7c0.7,3.3,0.8,4.7,0.3,8"/>
							</g>
						</g>
						<g id="XMLID_187_">
							<path id="XMLID_114_" class="st15" d="M133.7,380c-0.3-0.8-7.1-12.1-7.8-22.6c-0.7-10.6,2.8-20,5.5-18.9
								c2.7,1.2-0.1,16.5-0.1,16.5s2.6-16.7,6.2-15.6c3.5,1.1-0.8,20-0.8,20s3.8-13.9,6.4-13.4c2.6,0.5-1.4,19.4-1.4,19.4
								s1.7-11.7,4.9-11.5c3.3,0.2-1.1,14.8-1.1,14.8s8.2,8.2,3.4,18.1L133.7,380z"/>
							<path id="XMLID_117_" class="st15" d="M133.7,380c0,0-25.5,54.9-23.7,66c1,6.2,7.4,9.4,12.6,9.7c5.3,0.2,12.6-2.3,15.8-17.2
								c4-18.4,10.4-51.6,10.4-51.6L133.7,380z"/>
						</g>
					</g>
					<g id="XMLID_197_">
						<polygon id="XMLID_124_" class="st16" points="251.4,514.8 179.7,519.3 237.8,483 						"/>
						<g id="XMLID_195_">
							<g id="XMLID_166_">
								<path id="XMLID_177_" class="st8" d="M321.3,544.4c0.2,1.6,15.4,21.8,15.4,21.8l-16.6,13.1l-15.4-18.7L321.3,544.4z"/>
								<g id="XMLID_167_">
									<path id="XMLID_176_" class="st2" d="M327.6,596.3c-0.8-0.3-1.6-0.9-2.3-1.7c-4.1-4.7-6.2-16.5-6.2-16.5l16.1-13.9
										c0,0,20.8-7.9,29.6-7.3c1.2,0.1,2.2,0.3,2.9,0.8C373.1,561.3,333.1,598.2,327.6,596.3z"/>
									<path id="XMLID_175_" class="st17" d="M327.6,596.3c-0.8-0.3-1.6-0.9-2.3-1.7c7-4.8,28-20,39.5-37.8
										c1.2,0.1,2.2,0.3,2.9,0.8C373.1,561.3,333.1,598.2,327.6,596.3z"/>
									<g id="XMLID_168_">
										<g id="XMLID_173_">
											<path id="XMLID_174_" class="st17" d="M337.6,572.5C337.5,572.5,337.5,572.5,337.6,572.5c-0.7,0.2-1.4-0.2-1.6-0.9
												l-0.2-0.5c-0.1-0.2-0.1-0.3,0-0.5c-0.4-2.5-0.3-5.1,0.3-7.6c0.2-0.7,0.9-1.1,1.5-0.9c0.7,0.2,1.1,0.9,0.9,1.6
												c-0.6,2.4-0.6,5-0.1,7.4C338.6,571.6,338.2,572.3,337.6,572.5z"/>
										</g>
										<g id="XMLID_171_">
											<path id="XMLID_172_" class="st17" d="M342.8,570.4c-0.7,0.2-1.4-0.2-1.6-0.9c0,0,0,0,0,0c-0.8-2.7-0.7-5.7,0.1-8.3
												c0.2-0.7,0.9-1,1.6-0.8c0.7,0.2,1,0.9,0.8,1.6c-0.7,2.2-0.7,4.6-0.1,6.8C343.9,569.5,343.5,570.2,342.8,570.4
												C342.8,570.4,342.8,570.4,342.8,570.4z"/>
										</g>
										<g id="XMLID_169_">
											<path id="XMLID_170_" class="st17" d="M347.4,568.3c-0.1,0-0.1,0-0.2,0c-0.7,0.1-1.3-0.4-1.4-1.2
												c-0.2-2.4-0.1-4.8,0.4-7.1c0.1-0.7,0.8-1.1,1.5-1c0.7,0.1,1.1,0.8,1,1.5c-0.4,2.1-0.6,4.2-0.3,6.4
												C348.4,567.6,348,568.2,347.4,568.3z"/>
										</g>
									</g>
								</g>
							</g>
							<path id="XMLID_121_" class="st18" d="M133.2,477.6c0,0,8.1,51.9,44.2,42.3c36.1-9.6,86.1-33.4,86.1-33.4l46.5,93.3
								l24.6-23.3c0,0-42.7-100.8-57.8-105.1c-21.7-6.1-63.9,14.1-63.9,14.1L133.2,477.6z"/>
						</g>
						<g id="XMLID_196_">
							<g id="XMLID_163_">
								<path id="XMLID_154_" class="st8" d="M304.8,583.9c-0.3,1.6,8.9,25.1,8.9,25.1l-19.5,8.2l-9.8-22.1L304.8,583.9z"/>
								<g id="XMLID_158_">
									<path id="XMLID_164_" class="st2" d="M296.9,635.6c-0.7-0.5-1.3-1.3-1.8-2.3c-2.6-5.6-1.5-17.6-1.5-17.6l19.2-9.1
										c0,0,22.1-2,30.4,0.9c1.2,0.4,2,0.9,2.6,1.5C350.1,614.1,301.7,638.9,296.9,635.6z"/>
									<path id="XMLID_162_" class="st17" d="M296.9,635.6c-0.7-0.5-1.3-1.3-1.8-2.3c8-2.7,32.3-11.8,48.2-25.8
										c1.2,0.4,2,0.9,2.6,1.5C350.1,614.1,301.7,638.9,296.9,635.6z"/>
									<g id="XMLID_157_">
										<g id="XMLID_151_">
											<path id="XMLID_161_" class="st17" d="M312.9,615.3C312.9,615.3,312.9,615.3,312.9,615.3c-0.7,0-1.3-0.6-1.3-1.3l0-0.5
												c0-0.2,0-0.4,0.1-0.5c0.3-2.5,1.1-5,2.4-7.2c0.3-0.6,1.1-0.8,1.7-0.5c0.6,0.3,0.8,1.1,0.5,1.7c-1.2,2.2-2,4.6-2.1,7.1
												C314.1,614.8,313.6,615.3,312.9,615.3z"/>
										</g>
										<g id="XMLID_155_">
											<path id="XMLID_160_" class="st17" d="M318.5,614.8c-0.7,0-1.3-0.6-1.3-1.3c0,0,0,0,0,0c0-2.8,0.8-5.6,2.4-8
												c0.4-0.6,1.2-0.8,1.8-0.4c0.6,0.4,0.8,1.2,0.4,1.8c-1.3,1.9-2,4.3-1.9,6.6C319.7,614.2,319.2,614.7,318.5,614.8
												C318.5,614.8,318.5,614.8,318.5,614.8z"/>
										</g>
										<g id="XMLID_156_">
											<path id="XMLID_159_" class="st17" d="M323.5,614c-0.1,0-0.2,0-0.2,0c-0.7-0.1-1.2-0.8-1-1.5c0.4-2.4,1.2-4.6,2.3-6.8
												c0.3-0.6,1.1-0.9,1.7-0.5c0.6,0.3,0.9,1.1,0.5,1.7c-1,1.9-1.7,3.9-2,6C324.7,613.5,324.1,614,323.5,614z"/>
										</g>
									</g>
								</g>
							</g>
							<path id="XMLID_119_" class="st16" d="M227,502.5l12.4,12.3l47.2,99.3l27.1-12.8c0,0-32.6-122.3-52.4-118.2
								C241.4,487.2,227,502.5,227,502.5z"/>
						</g>
					</g>
				</g>
				<g id="XMLID_200_">
					<g id="XMLID_137_">
						<g id="XMLID_136_">
							<rect id="XMLID_127_" x="146.6" y="451.7" class="st19" width="135.7" height="4.1"/>
							<g id="XMLID_135_">
								<rect id="XMLID_128_" x="146.6" y="451.7" class="st20" width="52.3" height="4.1"/>
								<g id="XMLID_132_">
									<path id="XMLID_130_" class="st19" d="M195.3,453.8c0,0.6-0.5,1.1-1.1,1.1s-1.1-0.5-1.1-1.1s0.5-1.1,1.1-1.1
										S195.3,453.2,195.3,453.8z"/>
									<rect id="XMLID_131_" x="183.1" y="453.2" class="st19" width="7.8" height="1.3"/>
									<rect id="XMLID_133_" x="169.5" y="453.1" class="st19" width="7.8" height="1.3"/>
									<rect id="XMLID_134_" x="150.1" y="453.1" class="st19" width="7.8" height="1.3"/>
								</g>
							</g>
						</g>
						<g id="XMLID_126_">
							<polygon id="XMLID_123_" class="st21" points="289.8,452.3 197.9,452.2 218,386.9 310,386.9 							"/>
							<polygon id="XMLID_125_" class="st20" points="289.8,452.3 200.4,452.2 219.9,389.1 309.4,389 							"/>
						</g>
					</g>
					<g id="XMLID_191_">
						<path id="XMLID_103_" class="st6" d="M197.9,643.3L197.9,643.3c-1.8,0-3.3-1.5-3.3-3.3V464.7c0-1.8,1.5-3.3,3.3-3.3l0,0
							c1.8,0,3.3,1.5,3.3,3.3V640C201.2,641.8,199.8,643.3,197.9,643.3z"/>
						<path id="XMLID_106_" class="st6" d="M99.1,643.3L99.1,643.3c-1.8,0-3.3-1.5-3.3-3.3V464.7c0-1.8,1.5-3.3,3.3-3.3l0,0
							c1.8,0,3.3,1.5,3.3,3.3V640C102.4,641.8,100.9,643.3,99.1,643.3z"/>
						<path id="XMLID_109_" class="st6" d="M326.3,643.3L326.3,643.3c-1.8,0-3.3-1.5-3.3-3.3V464.7c0-1.8,1.5-3.3,3.3-3.3l0,0
							c1.8,0,3.3,1.5,3.3,3.3V640C329.6,641.8,328.1,643.3,326.3,643.3z"/>
						<rect id="XMLID_102_" x="81.2" y="455.8" class="st22" width="255.9" height="11.2"/>
					</g>
				</g>
			</g>
		</g>
	</g>
	<g id="XMLID_342_">
		<path id="XMLID_324_" class="st0" d="M971.4,505c-8.2-13.3-19.7-24.3-33.7-32.6c-42.4-25.1-99.2-27.1-141.4-0.4
			c-39.2,24.8-64.6,69.4-107.4,87.3c-20.5,8.6-44.4,10.6-61.3,25c-25,21.3-24.3,60.9-12,91.4c24.4,60.2,86.3,102,151,106.4
			c64.8,4.3,129.9-27.2,170.2-78.1c36.3-45.9,60.4-117.1,44.7-175.2C979.3,520.1,975.9,512.2,971.4,505z"/>
		<path id="XMLID_319_" class="st1" d="M937.6,778.4c0,8.2-73.9,14.9-165.2,14.9c-91.2,0-165.2-6.7-165.2-14.9
			c0-8.2,73.9-14.9,165.2-14.9C863.6,763.5,937.6,770.1,937.6,778.4z"/>
		<g id="XMLID_228_">
			<g id="XMLID_224_">
				<g id="XMLID_242_">
					<g id="XMLID_240_">
						<path id="XMLID_262_" class="st23" d="M889.4,774.7c0,5.6-31.4,10.1-70.1,10.1c-38.7,0-70.1-4.5-70.1-10.1
							c0-0.6,0.3-1.2,1-1.9c5.3-5.6,31-14.2,62.7-15.3c1,0,2.1,0,3.1-0.1c1.2,0,2.4,0,3.6,0c1.2,0,2.4,0,3.6,0
							c33.1,0.6,59.9,9.6,65.1,15.3C889.1,773.5,889.4,774.1,889.4,774.7z"/>
						<path id="XMLID_260_" class="st24" d="M888.4,772.8c-5.6,3.9-34.4,6.8-69.1,6.8c-34.7,0-63.5-3-69.1-6.8
							c5.3-5.6,31-14.2,62.7-15.3c1,0,2.1,0,3.1-0.1c1.2,0,2.4,0,3.6,0c1.2,0,2.4,0,3.6,0C856.4,758.1,883.2,767,888.4,772.8z"/>
					</g>
					<rect id="XMLID_238_" x="804.1" y="709.6" class="st24" width="30.6" height="53.4"/>
				</g>
				<g id="XMLID_281_">
					<path id="XMLID_231_" class="st25" d="M904.5,514.6c5.4,1,61.8,9.9,50,89.9c-10.7,72.6-78.4,119.4-155.9,121.2
						c-92.4,2.1-132.4-53.7-111.2-99.9c21.2-46.2,88.9-34.5,102.8-54.5C804.1,551.4,819.8,498.8,904.5,514.6z"/>
					<path id="XMLID_226_" class="st26" d="M860.6,523.1c0,0,68-10.3,73.6,27.3c5.6,37.5-16.7,93.7-49.4,100.5
						c-32.7,6.8-36.4,22.4-45.3,37c-8.9,14.6-61,51-117,14c-56-37.1-25.6-101.4,13-103.6C784.6,595.6,803.8,569.1,860.6,523.1z"/>
				</g>
				<g id="XMLID_279_">
					<g id="XMLID_269_">
						<path id="XMLID_212_" class="st27" d="M793.7,571.5c0,0-17.5-16.8-4.1-35.3l21.6,8.2L793.7,571.5z"/>
						<g id="XMLID_267_">
							<path id="XMLID_234_" class="st8" d="M858.3,509.2l-3.2,34.8c0,0-22.8,7.4-44.8,14c-6.1,1.8-12.1,3.6-17.5,5.1
								c-1.5,0.4-3,0.8-4.4,1.2c-7.1,1.9-12.8,3.2-15.8,3.5c-13.5,1.2-14.1-60.2-14.1-60.2l14.8,4.7c0,0,2.6,24.3,8,26
								c1.1,0.4,4.2-0.5,8.3-2.1c3.8-1.4,8.5-3.5,13.6-5.8c16.2-7.3,36.2-17.2,41.8-18.7C854.3,509.3,858.3,509.2,858.3,509.2z"/>
							<path id="XMLID_220_" class="st7" d="M810.3,558c-6.1,1.8-12.1,3.6-17.5,5.1c-1.5,0.4-3,0.8-4.4,1.2
								c3.2-11.8,1.2-28.1,1.2-28.1c3.8-1.4,8.5-3.5,13.6-5.8c4.8,3.5,9.8,7,10.5,7.3C814.3,537.9,812.3,548.5,810.3,558z"/>
						</g>
						<path id="XMLID_221_" class="st28" d="M858.3,509.2l-3.2,34.8c0,0-36.2,20.5-61.4,27.5c5.5-10.5,1.7-28.8-4.1-35.3
							c15.8-6,48-22.6,55.4-24.5C854.3,509.3,858.3,509.2,858.3,509.2z"/>
					</g>
					<g id="XMLID_276_">
						<path id="XMLID_207_" class="st29" d="M798.3,591.6c0,0-42.4-33.6-57.9-32.4c-16.5,1.3-22.9,13.6-19.5,25.2
							c3.3,11.6,16.1,33.1,16.1,33.1l74.2,18.2v-34.8L798.3,591.6z"/>
						<g id="XMLID_275_">
							<g id="XMLID_272_">
								<g id="XMLID_271_">
									<path id="XMLID_254_" class="st24" d="M714.9,782.8c-0.1,3.1-0.5,5.6-1.8,6.2c-4,2.1-65.4-12.2-67.9-17.9
										c-0.6-1.4,1-3,4-4.4c8.8-4.4,29.6-8.4,38.2-8.6c11.4-0.2,25.7,6.4,25.7,6.4S715.1,775.5,714.9,782.8z"/>
									<path id="XMLID_252_" class="st30" d="M714.9,782.8c-0.1,3.1-0.5,5.6-1.8,6.2c-4,2.1-65.4-12.2-67.9-17.9
										c-0.6-1.4,1-3,4-4.4C659.3,773,680.3,782.5,714.9,782.8z"/>
								</g>
								<g id="XMLID_270_">
									<path id="XMLID_259_" class="st8" d="M722.6,735.6c0,0.8-2.1,7.1-4.3,13.6c-2.5,7.5-5.2,15.3-5.2,15.3
										c-10.6-0.6-19.4-2.5-25.7-6.4l3.2-11l6.5-22.6L722.6,735.6z"/>
									<path id="XMLID_257_" class="st7" d="M722.6,735.6c0,0.8-2.1,7.1-4.3,13.6c-7.9,1.1-20,1.8-27.8-2.1l6.5-22.6L722.6,735.6z
										"/>
								</g>
							</g>
							<path id="XMLID_202_" class="st31" d="M866.4,640.7c0,0-25.1,36.8-44.7,31.5c-19.6-5.3-64.6-15.8-67.1-15.5
								c-2.5,0.3-30.6,90.4-30.6,90.4c-15.1,0.2-28.7-1.1-38.4-6.6c0,0,28.3-127.9,41.9-134.7c13.6-6.8,66.8,7.1,66.8,7.1
								s-4.2-10.4,4-21.4C806.6,580.6,866.4,640.7,866.4,640.7z"/>
						</g>
						<g id="XMLID_274_">
							<path id="XMLID_239_" class="st29" d="M767.5,678.2c0,0,29.2,13.1,41.5-10.7l-22.5-19.1L763.7,664L767.5,678.2z"/>
							<g id="XMLID_273_">
								<path id="XMLID_258_" class="st8" d="M809,673.7c-7,8-13.9,13.8-20.9,16.3l-9.4-12.9l-11.1-15.3l24.5-13.3
									c0.8,0.6,6.6,9.4,11.2,16.4C806.4,669.7,809,673.7,809,673.7z"/>
								<path id="XMLID_251_" class="st7" d="M803.2,664.9c-4.4-0.7-18.9-1.8-24.6,12.2l-11.1-15.3l24.5-13.3
									C792.8,649.1,798.6,657.9,803.2,664.9z"/>
								<g id="XMLID_230_">
									<path id="XMLID_255_" class="st24" d="M818.7,695.6c-17.7,14.3-56.8,14-61.3,9.7c-0.8-0.8-0.9-2.1-0.2-3.7c0,0,0,0,0,0
										c2.7-7.1,17.2-20.4,25.7-24.2c10.4-4.7,26.2-4.3,26.2-4.3s3.9,5.7,6.8,11.5c0.7,1.3,1.3,2.5,1.8,3.8
										C819.2,691.7,819.9,694.6,818.7,695.6z"/>
									<path id="XMLID_250_" class="st30" d="M818.7,695.6c-17.7,14.3-56.8,14-61.3,9.7c-0.8-0.8-0.9-2.1-0.2-3.7c0,0,0,0,0,0
										c13.1-6.7,41.6-19.8,58.7-17c0.7,1.3,1.3,2.5,1.8,3.8C819.2,691.7,819.9,694.6,818.7,695.6z"/>
									<path id="XMLID_253_" class="st32" d="M817.7,688.3c1.5,3.4,2.2,6.3,1,7.3c-17.7,14.3-56.8,14-61.3,9.7
										C757.4,705.3,799,685,817.7,688.3z"/>
								</g>
							</g>
							<path id="XMLID_229_" class="st33" d="M720.4,572c-1.9,5.7-2.7,16-0.9,21.7c2.1,6.3,7,13.5,14.1,27.1
								c14.8,28.1,33.9,57.4,33.9,57.4c11.9-17.7,26.7-21.4,41.5-10.7c0,0-38.6-76.9-46.4-90.5c-7.8-13.5-19.2-18.1-23.5-17.8
								c-4.3,0.3-9.5,1.2-14,6.1C722.1,568.5,721.1,569.8,720.4,572z"/>
						</g>
					</g>
					<g id="XMLID_277_">
						<path id="XMLID_222_" class="st8" d="M923.2,556.8c-3.6,8.2-56.8,83.9-56.8,83.9l-68.1-49.1c0,0,38.1-50.1,46.7-67
							c8.6-16.9,11.9-16,15.7-15c2.7,0.6,9.7,3.3,14.2,4c1.8,0.3,3.2,0.2,3.8-0.3c0,0,0,0,0.1,0c2.1-2.1,7.4-14.2,7.4-14.2
							l19.3-16.5l10.3,8.8c0,0-2.3,4.6-4.6,9.7c-2.6,5.8-5.1,12.3-4.4,13.7c0.2,0.4,0.7,1,1.4,1.7c4.1,4.1,15.5,12.5,17.6,17.2
							C928.4,539.1,926.8,548.6,923.2,556.8z"/>
						<path id="XMLID_214_" class="st7" d="M915.8,491.4c0,0-2.3,4.6-4.6,9.7c-7.5,6.5-21.9,16.7-32.6,12.2c0,0,0,0,0.1,0
							c2.1-2.1,7.4-14.2,7.4-14.2l19.3-16.5L915.8,491.4z"/>
					</g>
					<path id="XMLID_218_" class="st34" d="M923.2,556.8c-3.6,8.2-56.8,83.9-56.8,83.9l-68.1-49.1c0,0,38.1-50.1,46.7-67
						c8.6-16.9,11.9-16,15.7-15c2.7,0.6,9.7,3.3,14.2,4c-4.1,4.9-6.3,14.8-2.2,16.1c8.8,3,24.6-4.1,35.6-13.2
						c4.1,4.1,15.5,12.5,17.6,17.2C928.4,539.1,926.8,548.6,923.2,556.8z"/>
					<g id="XMLID_278_">
						<g id="XMLID_264_">
							<polygon id="XMLID_210_" class="st35" points="833.2,512.5 830.6,513.6 772.4,507.3 775.6,477.9 778.4,475 836.5,481.2 
															"/>
							
								<rect id="XMLID_211_" x="773.8" y="480.9" transform="matrix(0.9943 0.1065 -0.1065 0.9943 57.3845 -82.7384)" class="st29" width="58.5" height="29.6"/>
						</g>
						<g id="XMLID_263_">
							<path id="XMLID_209_" class="st28" d="M869.9,598.1c-5.7,2.7-24.9-15.6-7.5-42.3l20.5,12L869.9,598.1z"/>
							<g id="XMLID_261_">
								<path id="XMLID_233_" class="st8" d="M900.7,578.5c-4.3,2.1-10.3,4.9-16.9,7.6c-4.8,2-9.9,4-15.1,5.8
									c-1.8,0.6-3.5,1.2-5.3,1.7c-9.3,2.9-18.3,4.8-24.7,4.3c-16.1-1.2,0.3-76.7,0.3-76.7l16-5.1l0.2,42.8c0,0,2.9-1.2,7.2-3.2
									c3.3-1.5,7.4-3.4,11.8-5.4c8.1-3.8,16.8-8.2,21.9-11.4c11.3-7.3,19.8-6.2,19.8-6.2C939.7,539,917.1,570.5,900.7,578.5z"/>
								<path id="XMLID_219_" class="st7" d="M887,551.4l-3.2,34.7c-4.8,2-9.9,4-15.1,5.8c-1.8,0.6-3.5,1.2-5.3,1.7
									c7.6-14.8-1-37.9-1-37.9c3.3-1.5,7.4-3.4,11.8-5.4L887,551.4z"/>
							</g>
							<path id="XMLID_223_" class="st36" d="M902.3,582.5c-9.1,6.5-20.1,11.4-32.4,15.6c5.9-19.6-2.3-36.8-7.5-42.3
								c9.5-4.3,25.9-11.8,33.6-16.8c11.3-7.3,19.8-6.2,19.8-6.2C939.7,539,917.1,571.9,902.3,582.5z"/>
							<g id="XMLID_256_">
								<path id="XMLID_232_" class="st8" d="M855,516.2c0,0-6.1,10.7-5.9,11.5c0,0-6.3-3.1-10.1-6.4c-3.8-3.3-4-13.7-4-13.7
									s-3-1.4-4.3-1.4c-1.3,0-7.5,2.7-8.7,1.5c-0.8-0.8,0.1-2,0.8-2.6c0.2-0.1,0.3-0.3,0.4-0.4c-0.2,0.1-0.8,0.4-1.5,0.3
									c-0.5,0-1-0.3-1.4-0.9c-1.2-1.7,4.7-7.1,6.7-7.5c2-0.5,9.9,0,9.9,0s-5.2-3.4-7.1-3.8c-1.8-0.5-11,0.8-10.9-1.5
									c0.1-2.1,8.8-3.4,11.7-4.3c2.6-0.8,8.8,2.4,10.3,3.2c-2.3-1.4-15.7-9.6-13.3-11.5c2.7-2.1,19,5,22.4,8.3
									C853.7,490.3,855,516.2,855,516.2z"/>
								<path id="XMLID_227_" class="st7" d="M836.4,502.3c-5.2-2.3-9.5,0.1-13.6,2.9c0.2-0.1,0.3-0.3,0.4-0.4
									c-0.2,0.1-0.8,0.4-1.5,0.3c3.8-4,9.8-5.5,15.1-3.7C837.4,501.7,837.1,502.6,836.4,502.3z"/>
							</g>
						</g>
						<g id="XMLID_265_">
							<path id="XMLID_237_" class="st8" d="M789.4,484.3c-1,2.6-8.9-0.1-10.6,0.2c-1.6,0.4-7.4,2.6-7.4,2.6s16.4,1.1,15.7,4.5
								c-0.2,1-0.6,1.6-1.1,2c-0.7,0.6-1.6,0.6-2.1,0.6c0.3,0.1,0.6,0.3,0.8,0.6c0.2,0.3,0.3,0.7,0.2,1.2c-0.4,1.9-8.8,2.9-8.8,2.9
								s1.9,4.2-1.1,11c-3.1,7-11.5,3.9-11.5,3.9l-5.1-6.1c0,0-0.3-23.7,2.5-27c2.7-3.3,18.2-9.2,21.4-8c3.2,1.1-11,7.5-11.9,8
								c0.6-0.1,6.4-1.6,9.6-1.2C783.3,479.8,790,482.9,789.4,484.3z"/>
							<path id="XMLID_235_" class="st7" d="M784,494c0.3,0.1,0.6,0.3,0.8,0.6c-1.6-0.5-3.3-0.9-5-1.2c-2.9-0.4-5.8-0.4-8.7-0.6
								c-0.2,0-0.3-0.3,0-0.4c4.6-1.2,10.4-0.7,15.1,1.1C785.4,494,784.5,494.1,784,494z"/>
						</g>
					</g>
					<g id="XMLID_249_">
						<g id="XMLID_247_">
							<path id="XMLID_244_" class="st24" d="M939.5,475.3c0,0,5,16.5-13.2,13.1l-64.5-13.8c0,0-24.1-4.4-10.8-17.4
								c0,0-2-1.7-3.8-4.1c-3.6-4.8-6.8-12.5,5.9-16.2c0,0-6-16.8,14.6-14.9c0,0,2.8-19.4,20.4-6.7c0,0,10.3-15.1,19.2-0.4
								c0,0,11.1-6.3,16.6,1.7c1.4,2,2.4,4.8,2.8,8.8c0,0,18.3-2.3,11.1,15.7c0,0,15.4,4.9,3.9,17.4
								C941.6,458.5,953.2,467.2,939.5,475.3z"/>
							<path id="XMLID_241_" class="st37" d="M923.9,416.7c-8.6-3.9-17.5,1.1-17.5,1.1c-10.4-10.5-18,1.3-18,1.3
								c-13.4-10.4-18.8,6.7-18.8,6.7c-17.5,0.2-12.1,14.4-12.1,14.4c-8.8,2.5-10.2,8.6-10.2,13c-3.6-4.8-6.8-12.5,5.9-16.2
								c0,0-6-16.8,14.6-14.9c0,0,2.8-19.4,20.4-6.7c0,0,10.3-15.1,19.2-0.4C907.3,415,918.3,408.7,923.9,416.7z"/>
						</g>
						<path id="XMLID_205_" class="st7" d="M872.3,482.4c-1.4,3.8-7.1,5.1-12.8,3c-5.7-2.1-9.1-6.8-7.7-10.6c1.4-3.8,7.1-5.1,12.8-3
							C870.3,473.9,873.7,478.6,872.3,482.4z"/>
						<g id="XMLID_236_">
							<path id="XMLID_245_" class="st8" d="M926.1,466.8c-0.1,2.4-0.4,4.7-0.9,7.2c-4.2,21.8-26,35.2-47,33.3
								c-15.6-1.4-20.2-21.2-16.1-43c0.3-1.5,0.6-2.9,1-4.3c2.5-9.1,7.2-16.5,13.1-21.7c6.5-5.8,14.4-8.6,22.4-8
								c16,1.4,24.7,11.5,27.1,24.9C926.2,459,926.4,462.8,926.1,466.8z"/>
							<path id="XMLID_243_" class="st7" d="M928.4,461.1l-2.3,5.8l-5.3,13.3c0,0-6.6-8.4-10-18.2c0,0-10.6,2.5-13.5-3.6
								c0,0-10.3,3.6-13.9-2.4c0,0-10.9,7.3-14.5,0c0,0-1.2,4.9-5.7,4.1c2.5-9.1,7.2-16.5,13.1-21.7c11.4,0.7,42.4,2.7,42.4,2.7
								l7,14.3L928.4,461.1z"/>
						</g>
						<path id="XMLID_206_" class="st24" d="M920,482.4c0,0-5.9-14.9-6.4-25.8c0,0-8.2,4.7-14.3-3.9c0,0-11.6,6.3-15.8-1.3
							c0,0-11.6,8.1-15.2-0.7c0,0-1.2,5.5-4,5.3c-2.8-0.2-5.2-15.7,13.9-23.7c19.1-8,33-0.6,40.5,4.8c7.5,5.4,11.1,18.8,10.3,25.8
							c-0.5,3.9-0.4,14.2-2.7,18.4C924.4,484.7,920,482.4,920,482.4z"/>
						<path id="XMLID_203_" class="st8" d="M934.2,484.3c0.3,4-4.4,7.6-10.4,8c-6,0.4-11.2-2.5-11.4-6.5c-0.3-4,4.4-7.6,10.4-8
							C928.8,477.4,933.9,480.3,934.2,484.3z"/>
						<g id="XMLID_217_">
							<path id="XMLID_204_" class="st11" d="M890.6,478.2c-0.4,1.6-1.4,2.7-2.2,2.5c-0.8-0.2-1.2-1.6-0.9-3.2
								c0.4-1.6,1.4-2.7,2.2-2.5C890.6,475.2,890.9,476.6,890.6,478.2z"/>
							<path id="XMLID_213_" class="st11" d="M870.4,475.8c-0.1,1.6-0.8,2.9-1.7,2.8c-0.9,0-1.5-1.4-1.4-3c0.1-1.6,0.8-2.9,1.7-2.8
								C869.8,472.9,870.5,474.2,870.4,475.8z"/>
							<path id="XMLID_208_" class="st14" d="M875.8,475.7c-1.1,2.8-1.1,5.8-0.1,8.3"/>
							<path id="XMLID_215_" class="st38" d="M890.2,465.9c2.5-0.4,7.1,0.9,8.4,3"/>
							<path id="XMLID_216_" class="st38" d="M865,466.9c1.5-1.7,4.6-2.7,7.5-1.6"/>
							<path id="XMLID_225_" class="st14" d="M876.5,492.4c0,0,10.4,3.3,16.7-5.4"/>
						</g>
					</g>
				</g>
			</g>
			<g id="XMLID_280_">
				<path id="XMLID_268_" class="st25" d="M909.6,669.2c-26.6,47.7-125,51.4-125,51.4c6.1-1.1,12-5.3,17.6-11.1
					c15.4-16.1,27.8-44.4,31.6-53.4c8.4-20.3,25.8-17.6,51.1-20.3c19.4-2.1,34.5-21.3,40.6-30.3c1.9-2.8,2.9-4.6,2.9-4.6
					S936.2,621.6,909.6,669.2z"/>
				<path id="XMLID_266_" class="st39" d="M925.5,605.4c-2.6,9.9-15,29.6-34.6,34.2c-27.8,6.4-43.4,4.3-48.7,12.4
					c-4.7,7.1-18.6,45.8-40,57.5c15.4-16.1,27.8-44.4,31.6-53.4c8.4-20.3,25.8-17.6,51.1-20.3C904.2,633.6,919.4,614.4,925.5,605.4z
					"/>
			</g>
		</g>
	</g>
	<g id="XMLID_294_">
		<path id="XMLID_300_" class="st33" d="M980.5,319.3c0.2,34.2-27.4,62.1-61.6,62.3c-34.2,0.2-62.1-27.4-62.3-61.6
			c-0.2-34.2,27.4-62.1,61.6-62.3c7.4-0.1,14.5,1.2,21.1,3.6l-20.8,58.4l61.5-7C980.4,314.8,980.5,317.1,980.5,319.3z"/>
		<path id="XMLID_301_" class="st40" d="M991.1,301.7l-61.5,7l20.8-58.4C972.2,258.1,988.4,277.9,991.1,301.7z"/>
	</g>
	<g id="XMLID_344_">
		<path id="XMLID_325_" class="st0" d="M356.6,689c20.1-13.3,38.6-29.2,62.1-35.9c69.8-19.7,125.1,48,162.8,95.8
			c22.7,28.8,50.7,67.3,40.2,106.2c-26.1,97.3-181.8,86.8-255.9,69.6c-54-12.5-129.8-39.4-152-95.8c-13.1-33.3,4.5-68.8,30.4-90.3
			c27.3-22.6,61.5-23.6,92-38C343.4,697.3,350.1,693.3,356.6,689z"/>
		<g id="XMLID_184_">
			<path id="XMLID_100_" class="st40" d="M458.5,767.1c-1.3-1.7-26.6-62.4-26.6-62.4s-11.8,0.6-19.6,21.5
				c-7.8,20.9-37.1,112.3-37.1,112.3l28.4,17.7l17.6-7.3L458.5,767.1z"/>
			<path id="XMLID_91_" class="st41" d="M594.3,859.1H449.3c0,0-20.7-41.9-23.8-78.9c-2.1-25.5,0-72,6.4-75.4
				c2.8-1.5,11.3-4.2,20.1-7c0.3,15,14.8,38.7,34.4,44.7c17.8,5.4,50.4-23.6,64.7-37.3c13.2,8.6,26.2,17.3,28.7,21.7
				C583.9,733.8,594.3,859.1,594.3,859.1z"/>
			<g id="XMLID_180_">
				<path id="XMLID_90_" class="st8" d="M551.2,705.1c-14.3,13.6-46.9,42.7-64.7,37.3c-19.6-6-34.1-29.7-34.4-44.7
					c9.2-3,18.7-6.1,22.2-8h0c0.8-0.5,1.3-0.9,1.4-1.2c0.4-2.9-4.8-28.2-4.8-28.2l42.7-9.9c0,0,0.1,8.5,2.6,18
					c2.2,8.3,6.1,17.4,13.2,22.4C535.3,694.8,543.3,699.9,551.2,705.1z"/>
				<path id="XMLID_72_" class="st7" d="M475.7,688.5c0.4-2.9-4.8-28.2-4.8-28.2l42.7-9.9c0,0,0.1,8.5,2.6,18
					C483.9,701.8,475.6,688.8,475.7,688.5z"/>
			</g>
			<g id="XMLID_83_">
				<path id="XMLID_64_" class="st7" d="M437.8,635.4c-2.5,6.6-12.8,8.9-23.2,5.1c-10.3-3.8-16.7-12.3-14.2-18.9
					c2.5-6.6,12.8-8.9,23.2-5.1C433.9,620.3,440.3,628.7,437.8,635.4z"/>
				<path id="XMLID_66_" class="st9" d="M443.8,561.9l-23.8,4.9c0,0-13.9,34.1-4.2,57C423,640.6,443.8,561.9,443.8,561.9z"/>
				<path id="XMLID_75_" class="st8" d="M541.9,616c-1.2,6-3,11.8-5.3,17.2c-14.1,32.8-53.3,53.9-82.5,48.3
					c-34.1-6.6-43.7-47.2-35.5-89.4c1.4-6.9,3.4-13.5,6-19.5c13.4-31.2,42-50.5,70.5-45C529.1,534.2,550.1,573.8,541.9,616z"/>
				<g id="XMLID_82_">
					<path id="XMLID_65_" class="st42" d="M523.6,550.7c0,0,9.6-13,20.1-11.4c10.4,1.6,19.8,14.1,19.8,14.1s-16.2-8.3-25.1-7.1
						c0,0,15,5.1,17.7,19.4C556.1,565.7,541.8,551.6,523.6,550.7z"/>
					<path id="XMLID_61_" class="st42" d="M540.6,539.4c-9.6,15.8-26.3,23.1-37.4,16.4s-12.1-24.9-2.5-40.7
						c9.6-15.8,21.5-25.9,37.4-16.4C555,508.8,550.2,523.6,540.6,539.4z"/>
				</g>
				<g id="XMLID_81_">
					<path id="XMLID_80_" class="st9" d="M546.2,616.2c-1.6,5.9-4,12.7-6.3,18.1c-6.5,4.8-19,5.9-19,5.9c0-1.2-10-55.4-10.2-56.8
						c0,1.8-47.4-14-86.1-10.9c-0.4-0.3-0.8-0.6-1.2-0.8c-2.4-1.8-4.1-3.8-5.4-5.9c0,0,0,0,0,0c-11.7-20,26.7-49.5,69.3-43.5
						c0.8,0.1,1.5,0.2,2.3,0.4c1.5,0.3,3,0.5,4.6,0.9c17.2,3.9,30.1,11.3,39.1,21C550.2,562.6,553.7,588.8,546.2,616.2z"/>
					<path id="XMLID_76_" class="st37" d="M533.3,544.5c-29-12.5-91.6-30.7-115.3,21.3c-11.7-20,26.7-49.5,69.3-43.5
						c0.8,0.1,1.5,0.2,2.3,0.4c1.5,0.3,3,0.5,4.6,0.9C511.4,527.4,524.3,534.8,533.3,544.5z"/>
				</g>
				<g id="XMLID_79_">
					<path id="XMLID_63_" class="st11" d="M479.7,627.2c0,3.1-1.1,5.6-2.5,5.6s-2.5-2.5-2.5-5.6c0-3.1,1.1-5.6,2.5-5.6
						S479.7,624.1,479.7,627.2z"/>
					<path id="XMLID_68_" class="st11" d="M433.2,622.8c0,3.1-1.1,5.6-2.5,5.6c-1.4,0-2.5-2.5-2.5-5.6c0-3.1,1.1-5.6,2.5-5.6
						C432,617.2,433.2,619.7,433.2,622.8z"/>
					<g id="XMLID_73_">
						<path id="XMLID_67_" class="st14" d="M447.1,623.6c-2,5.4-2.5,11.3-1.3,16.9"/>
						<path id="XMLID_69_" class="st43" d="M476.7,597.2c5.3-0.8,10.9,0.7,15,4.1"/>
						<path id="XMLID_70_" class="st43" d="M426.2,586.4c5.1-1.1,10.6,0.3,14.6,3.6"/>
						<path id="XMLID_71_" class="st14" d="M455.1,655.9c8.3,1.4,17.1-0.8,23.8-5.9"/>
					</g>
				</g>
				<path id="XMLID_62_" class="st8" d="M555.8,636.4c1.3,6.9-6.3,14.3-17.2,16.4c-10.8,2.1-20.7-1.9-22-8.8
					c-1.3-6.9,6.3-14.3,17.2-16.4C544.6,625.5,554.5,629.5,555.8,636.4z"/>
			</g>
			<g id="XMLID_182_">
				<path id="XMLID_85_" class="st44" d="M558.9,718.4c8.7-0.2,17,3.6,23,10c6.5,6.9,17.2,19.9,33.6,43.4
					c30.3,43.5,41.1,65.7,31.7,78c-9.5,12.3-120.2,9.3-120.2,9.3l-10-29.7l55.7-11.2c0,0-29.7-44.9-33.4-63.5
					C536.1,739.2,538.8,718.9,558.9,718.4z"/>
				<g id="XMLID_181_">
					<path id="XMLID_111_" class="st8" d="M527.7,858.8c0,0-8.3,3.8-25.1,1.9c-16.8-1.9-20.8-13.2-20.8-13.2s-11.9,2.9-15.2-1.3
						c-1.6-2-1.1-4-0.7-5.1c0.2-0.6,0.5-0.9,0.5-0.9s-0.8,0.5-2.1,0.7c-1.4,0.2-3.4,0-5.4-1.8c-3.8-3.2-0.4-8.6-0.1-9h0
						c-0.2,0.1-1.1,0.4-2.3,0.4c-1.6,0-3.8-0.7-5.3-3.7c-2.7-5.5,11.5-12.9,12.7-13.5c-1.4,0.4-23.9,7.1-26.3,7.4
						c-2.4,0.3-7,0.2-4.1-5.3c2.9-5.5,27.1-18.2,46.6-14c19.5,4.3,36.8,28.2,36.8,28.2L527.7,858.8z"/>
					<g id="XMLID_99_">
						<g id="XMLID_84_">
							<path id="XMLID_105_" class="st7" d="M458.8,829.9L458.8,829.9c7-7.8,15.1-12.6,25.3-16.2c1-0.3,0.6-1.7-0.4-1.5
								c-10.7,2.1-20.8,9.2-27.1,18.1L458.8,829.9z"/>
							<path id="XMLID_107_" class="st7" d="M488.8,824.3c-9.4,4-17,8.8-22.9,16.7c0.2-0.6,0.5-0.9,0.5-0.9s-0.8,0.5-2.1,0.7
								c5.3-8.6,14-15.9,23.9-17.8C489,822.8,489.6,823.9,488.8,824.3z"/>
						</g>
					</g>
				</g>
			</g>
			<g id="XMLID_183_">
				<rect id="XMLID_98_" x="170.6" y="856.3" class="st45" width="481.7" height="18.5"/>
				<g id="XMLID_97_">
					<g id="XMLID_96_">
						<rect id="XMLID_88_" x="199.9" y="841.7" class="st46" width="291.4" height="14.6"/>
						<rect id="XMLID_89_" x="398.7" y="841.7" class="st47" width="92.6" height="14.6"/>
						<g id="XMLID_95_">
							<rect id="XMLID_92_" x="418.3" y="846" class="st46" width="23.1" height="5.9"/>
							<rect id="XMLID_94_" x="458.5" y="846" class="st46" width="23.1" height="5.9"/>
							<path id="XMLID_93_" class="st46" d="M414.3,849c0,1.5-1.2,2.6-2.8,2.6c-1.5,0-2.8-1.2-2.8-2.6s1.2-2.6,2.8-2.6
								C413.1,846.3,414.3,847.5,414.3,849z"/>
						</g>
					</g>
					<g id="XMLID_87_">
						<polygon id="XMLID_74_" class="st2" points="398.7,840 390.8,846.1 178.8,846.1 149.5,722.9 157.2,714.7 374.4,714.7 						
							"/>
						<polygon id="XMLID_86_" class="st47" points="390.8,846.1 178.8,846.1 149.5,722.9 365.6,722.9 						"/>
						<path id="XMLID_101_" class="st2" d="M308.6,782.7c0,6.8-15,12.4-33.4,12.4c-18.5,0-33.4-5.5-33.4-12.4
							c0-6.8,15-12.4,33.4-12.4C293.6,770.3,308.6,775.9,308.6,782.7z"/>
					</g>
				</g>
			</g>
		</g>
		<g id="XMLID_303_">
			<g id="XMLID_302_">
				<path id="XMLID_297_" class="st48" d="M610.5,639.4c-1.8,5.2-10.7,6.9-20,3.7c-9.3-3.1-15.4-9.9-13.6-15.1
					c1.8-5.2,10.7-6.9,20-3.7C606.2,627.4,612.3,634.2,610.5,639.4z"/>
				<polygon id="XMLID_322_" class="st49" points="638.3,585.9 630,603.8 628.8,606.4 626.6,611.2 625.4,613.8 623.2,618.6 
					622,621.2 619.8,626 618.6,628.6 616.4,633.4 615.2,636 613.2,640.3 574.3,627.2 575.3,622.5 575.8,619.7 576.9,614.4 
					577.4,611.7 578.5,606.4 579,603.7 580.1,598.4 580.6,595.7 581.7,590.4 582.3,587.6 586.1,568.2 				"/>
				<g id="XMLID_299_">
					<polygon id="XMLID_309_" class="st48" points="630,603.8 628.8,606.4 581.7,590.4 582.3,587.6 					"/>
					<polygon id="XMLID_305_" class="st48" points="580.6,595.7 626.6,611.2 625.4,613.8 580.1,598.4 					"/>
					<polygon id="XMLID_307_" class="st48" points="623.2,618.6 622,621.2 578.5,606.4 579,603.7 					"/>
					<polygon id="XMLID_306_" class="st48" points="619.8,626 618.6,628.6 576.9,614.4 577.4,611.7 					"/>
					<polygon id="XMLID_312_" class="st48" points="616.4,633.4 615.2,636 575.3,622.5 575.8,619.7 					"/>
				</g>
			</g>
			<g id="XMLID_295_">
				<path id="XMLID_315_" class="st33" d="M663.8,568.6c-7.2,21.2-27.6,29.2-48.7,25c-0.9-0.2-1.8-0.4-2.7-0.6
					c-1.7-0.4-3.4-0.9-5.1-1.5c-2.5-0.8-4.9-1.8-7.1-2.9c-0.9-0.4-1.7-0.9-2.5-1.3c-17.7-9.8-26.8-27.6-19.9-47.9
					c8.1-23.8,33.9-36.5,57.7-28.5C659.2,519,671.9,544.8,663.8,568.6z"/>
				<g id="XMLID_298_">
					<path id="XMLID_310_" class="st50" d="M644.5,562.8c-2.5,7.4-12.7,15-24.1,17.9l-5.3,12.9c-0.9-0.2-1.8-0.4-2.7-0.6l6.1-14.7
						l0.7-0.2c10.6-2.4,20.6-9.6,22.8-16.2c0.9-2.9,0.4-5.5-1.5-7.7c-1.4-1.6-3-2.4-5.1-2.5c-7.7-0.4-17.6,8.9-17.6,9l-2,1.9
						l-0.3-2.8c0-0.1-1.2-12.6-7.1-16.2c-1.9-1.2-4.2-1.2-6.8-0.1c-2.3,0.9-3.7,2.5-4.4,4.6c-2.8,8.5,6.2,23.5,6.2,23.7l0.3,0.5
						l-3.4,16.2c-0.9-0.4-1.7-0.9-2.5-1.3l3-14.5c-1.6-2.7-9.1-16.5-6.2-25.4c1-3,3-5.1,6-6.3c3.5-1.4,6.6-1.3,9.3,0.3
						c5.3,3.2,7.3,11.4,8.1,15.7c3.5-2.9,11-8.4,17.7-8.1c2.8,0.2,5.2,1.3,7,3.5C645.1,555.5,645.8,559.1,644.5,562.8z"/>
				</g>
				<path id="XMLID_296_" class="st51" d="M590.3,527.3c2.1-3.3,5.1-6.1,8.5-8.2c6.8-4.2,20.2-10.5,36.3-4.2c18,7.1-5,0.8-22.3,5.2
					C597.2,524.1,583.5,537.9,590.3,527.3z"/>
			</g>
		</g>
	</g>
	<g id="XMLID_346_">
		<g id="XMLID_340_">
			<path id="XMLID_326_" class="st0" d="M658.8,40.5c-23.8,0.6-47.6,5.8-69.4,15.5c-32.5,14.4-50.9,47.2-71.4,74.7
				c-17.3,23.2-37.9,45.9-65.3,55.3c-26,8.9-55,4.6-81.1,13.2c-48.3,15.9-73.2,74.9-61.9,124.5c11.3,49.6,51,88.7,95.9,112.5
				c93.5,49.4,212.8,39.7,302.9-15.8c49.9-30.7,92.4-75.5,113.7-130c41.1-105-12.5-227.2-129-247.3
				C681.9,41.1,670.3,40.2,658.8,40.5z"/>
			<g id="XMLID_6_">
				<g id="XMLID_293_">
					<g id="XMLID_286_">
						<rect id="XMLID_246_" x="337.4" y="123" class="st52" width="482.2" height="307.8"/>
						<rect id="XMLID_248_" x="337.4" y="123" class="st53" width="482.2" height="26.1"/>
						<g id="XMLID_283_">
							<path id="XMLID_282_" class="st52" d="M744.9,136c0,3.2-2.6,5.8-5.8,5.8c-3.2,0-5.8-2.6-5.8-5.8c0-3.2,2.6-5.8,5.8-5.8
								C742.3,130.3,744.9,132.8,744.9,136z"/>
							<path id="XMLID_284_" class="st52" d="M773,136c0,3.2-2.6,5.8-5.8,5.8s-5.8-2.6-5.8-5.8c0-3.2,2.6-5.8,5.8-5.8
								S773,132.8,773,136z"/>
							<path id="XMLID_285_" class="st52" d="M800.9,136c0,3.2-2.6,5.8-5.8,5.8c-3.2,0-5.8-2.6-5.8-5.8c0-3.2,2.6-5.8,5.8-5.8
								C798.3,130.3,800.9,132.8,800.9,136z"/>
						</g>
					</g>
					<g id="XMLID_308_">
						<rect id="XMLID_304_" x="767.7" y="194.5" class="st54" width="20" height="235.9"/>
						<rect id="XMLID_311_" x="707.7" y="260.8" class="st54" width="20" height="169.6"/>
						<rect id="XMLID_313_" x="498.3" y="229.2" class="st54" width="20" height="201.2"/>
						<rect id="XMLID_316_" x="364.6" y="230.5" class="st54" width="20" height="201.2"/>
						<rect id="XMLID_314_" x="433.5" y="172.6" class="st54" width="20" height="257.7"/>
					</g>
				</g>
				<g id="XMLID_7_">
					<defs>
						<rect id="XMLID_317_" x="309.8" y="82.3" width="585.3" height="348.5"/>
					</defs>
					<clipPath id="XMLID_2_">
						<use xlink:href="#XMLID_317_"  style="overflow:visible;"/>
					</clipPath>
					<g id="XMLID_8_" class="st55">
						<path id="XMLID_32_" class="st56" d="M696.3,261.2c-1.2,7.6-13.2,9.8-22.7,20.7c-9.6,10.9,12,13.2,13.4,21.7
							c1.3,8.5-0.3,20.2-14.9,25.5c-14.6,5.3-140.5,24.7-153.5,3.8c-12.9-20.9,3-35.7,8.6-40.3c5.7-4.7-21.6-7.5-21.5-22.8
							c0.1-12.4,25.8-14.5,22-21.4c-3.8-6.9-23.6-5-22-14.8c1.6-9.7,32.7-14.3,33.2-20.4c0.3-3.1-1.8-13.8-2.8-26.9c0,0,0,0,0,0
							c-1-12.6,2.2-31.9,5.9-44.2c0,0,13.7-12.9,28.1-16.5c18.8-4.7,38.8-4.9,38.8-4.9l43.3,28.6l4.6-12.6c0,0.1,0,0.1,0,0.2
							c0,0.1,0.1,0.2,0.1,0.3c0.3,1.3,1.1,4.9,1.9,9.8c2.1,12.5,4.6,33.1,0.4,43.5c-6.4,15.5,17.8,18.2,24.5,23.7
							c6.7,5.5,1,15.1-10.8,22.5C661.2,243.9,698.9,245.4,696.3,261.2z"/>
						<polygon id="XMLID_9_" class="st49" points="661.6,323.4 630.9,286 554.2,280.5 527.2,430.8 650.5,431.8 						"/>
						<g id="XMLID_59_">
							<g id="XMLID_51_">
								<path id="XMLID_26_" class="st8" d="M635.6,289.5c0,0-47.4,59-55.9,59c-8.5,0-25.4-68-25.4-68s9.1-0.7,15-7.7
									c2-2.4,3.5-6.4,4.5-11c3.2-14.7,2-36.1,2-36.1l48.5-8.5c-0.9,0-7.9,20.7-7,40.3C617.8,271.2,622.3,284.4,635.6,289.5z"/>
								<path id="XMLID_24_" class="st7" d="M617.2,257.4c-13.1,3.7-30.3,7.1-43.5,4.3c3.2-14.7,2-36.1,2-36.1l48.5-8.5
									C623.3,217.1,616.3,237.8,617.2,257.4z"/>
							</g>
							<g id="XMLID_58_">
								<path id="XMLID_78_" class="st7" d="M671.4,192.3c1,5.5-5.3,11.4-14.2,13.1c-8.9,1.7-16.9-1.5-17.9-7
									c-1-5.5,5.3-11.4,14.2-13.1C662.3,183.6,670.3,186.8,671.4,192.3z"/>
								<path id="XMLID_77_" class="st7" d="M559.5,198.1c-0.9,5.6-8.9,8.9-17.8,7.4c-8.9-1.5-15.3-7.2-14.4-12.8
									c0.9-5.6,8.9-8.9,17.8-7.4C554,186.8,560.4,192.5,559.5,198.1z"/>
								<g id="XMLID_56_">
									<path id="XMLID_22_" class="st8" d="M654.6,185.6c-2.1,34.8-26.4,65.1-58.4,65.1c-30.4,0-50.7-36.8-48.6-71.7
										c2.1-34.8,27.8-61.6,57.4-59.8C634.5,121,656.7,150.7,654.6,185.6z"/>
									<path id="XMLID_17_" class="st7" d="M652.4,182.2l-13.3-13.8c0,0-37.3,3.7-55-21.9c0,0-4.6,17.4-30,30.2l-6.6,9.4
										c0,0-10.4-53.2,26.1-61c36.4-7.8,76.3,7,81.6,30.5C660.7,179.1,652.4,182.2,652.4,182.2z"/>
								</g>
								<g id="XMLID_57_">
									<path id="XMLID_31_" class="st56" d="M653.8,192.9l-8.1-28.4c0,0-43.8,0.7-61.4-30.9c0,0-16.1,33-32.3,40.7l-4.7,21
										c-1-0.4-4.7-10-6.4-22.8c-1.1-7.9-1.4-17.1,0.2-26.2c0,0,0-0.1,0-0.1c2.9-16.7,12.3-32.8,35.1-39.2
										c26-7.3,53.1-5.5,69.5,8.5c6.1,5.2,10.8,12.1,13.4,20.9c0,0.1,0,0.1,0,0.2c0,0.1,0.1,0.2,0.1,0.3c0.9,3,1.5,6.3,1.9,9.8
										C662.6,159.1,660.5,174.4,653.8,192.9z"/>
									<path id="XMLID_28_" class="st37" d="M645.8,115.5c-18.4-3.2-49.2-5.1-73.3,9.8c-14.2,8.8-26,23.4-31.6,47.1
										c-1,4.3-1.8,8.8-2.4,13.6c-1-12.6-1.1-27.4,2.6-39.8c0,0,0-0.1,0-0.1c2.9-16.7,12.3-32.8,35.1-39.2
										C602.3,99.7,629.3,101.5,645.8,115.5z"/>
								</g>
								<g id="XMLID_25_">
									<path id="XMLID_13_" class="st11" d="M624.2,193.6c0,3-1.2,5.4-2.7,5.4c-1.5,0-2.7-2.4-2.7-5.4c0-3,1.2-5.4,2.7-5.4
										C622.9,188.2,624.2,190.6,624.2,193.6z"/>
									<path id="XMLID_18_" class="st11" d="M577.5,190.3c0,3-1.2,5.4-2.7,5.4c-1.5,0-2.7-2.4-2.7-5.4c0-3,1.2-5.4,2.7-5.4
										C576.3,184.8,577.5,187.3,577.5,190.3z"/>
									<path id="XMLID_19_" class="st12" d="M615.1,214.9c-0.7,0.3-26.8,3.7-26.8,3.7s3.5,13.8,14.3,12.6
										C613.5,230,615.1,214.9,615.1,214.9z"/>
									<g id="XMLID_23_">
										<path id="XMLID_16_" class="st14" d="M594.8,190.1c-0.4,5.9-0.2,11.9,0.4,17.8"/>
										<path id="XMLID_20_" class="st57" d="M618.4,171.1c3.8-1.6,8.5-0.6,11.4,2.3"/>
										<path id="XMLID_21_" class="st57" d="M563.6,172c3.6-3.4,9.5-4.3,13.9-1.9"/>
									</g>
								</g>
							</g>
						</g>
						<g id="XMLID_49_">
							<path id="XMLID_55_" class="st58" d="M559.6,278.1c0,0-16,92.4-21.4,152.7l-47.7,0.9l-47,0.9c0,0,48.4-125.5,63.8-138.1
								c1.5-1.2,3.2-2.3,5-3.4C529.4,281.4,559.6,278.1,559.6,278.1z"/>
							<path id="XMLID_53_" class="st59" d="M507.3,294.5c1.5-1.2,3.2-2.3,5-3.4c-4.3,10.8-9,26-10.8,39.9
								c-2.4,18.9-8.2,74.4-11,100.7l-47,0.9C443.5,432.6,491.9,307.1,507.3,294.5z"/>
						</g>
						<g id="XMLID_10_">
							<g id="XMLID_11_">
								<g id="XMLID_12_">
									<g id="XMLID_14_">
										<path id="XMLID_15_" class="st60" d="M419,290c0,0-22-38.7-46.7-47.8l5.8,25.3L419,290z"/>
										<path id="XMLID_27_" class="st61" d="M419,290c0,0-23.9-37.6-52.5-40.3L354,264.6l54.3,43.1l7.6-4.9L419,290z"/>
									</g>
									<g id="XMLID_29_">
										<polygon id="XMLID_30_" class="st61" points="486.8,250.7 494.7,275.6 490.7,284.7 488.2,270.1 										"/>
										<path id="XMLID_33_" class="st62" d="M415.9,302.7L419,290c0,0,27.6-34,67.8-39.4l2.2,21.8L415.9,302.7z"/>
									</g>
								</g>
								<path id="XMLID_34_" class="st4" d="M415.9,302.7c0,0-30.7-40.6-66.2-39.9l38.7,104.7c0,0,23.6,1.4,54.2,31.8L415.9,302.7z"
									/>
								<g id="XMLID_35_">
									<path id="XMLID_36_" class="st63" d="M442.6,399.3c-2.1,2-26.7-96.5-26.7-96.5s25.8-28.5,78.7-36.6l21.3,106.4
										C515.9,372.5,466.1,376.9,442.6,399.3z"/>
									<path id="XMLID_37_" class="st64" d="M435.7,307.6c13.6-12.8,28.8-20.8,46.5-21.6l6.2,28.2c-17.1,2-31.2,11.5-43.9,22.1
										L435.7,307.6z"/>
								</g>
							</g>
							<g id="XMLID_38_">
								<path id="XMLID_39_" class="st65" d="M425.7,436.6c0,0-7-41.2,34.2-32.8l1.9,15.2L425.7,436.6z"/>
								<g id="XMLID_40_">
									<path id="XMLID_44_" class="st8" d="M444.7,436.1l-11.9-19l-2.1-3.4c-7.7-9.7-42.4-56.8-38.8-65.3
										c3.6-8.5,24.1,23.7,24.1,23.7s-12.8-35.5-7.6-38.5c5.2-3,22.8,41.4,22.8,41.4s-3.9-35.2,0-36.4c3.9-1.2,6.3,6.5,6.3,6.5
										s1.8-3.7,5.3-3.2c3.4,0.5,9.8,35.4,9.8,35.4s6.4,7.3,7.2,21.9c0.1,1.4,0.1,2.8,0.1,4.3h0c0,0,6.7,17.8,7.5,18.6
										C468.1,423.2,444.7,436.1,444.7,436.1z"/>
									<path id="XMLID_42_" class="st7" d="M444.7,436.1l-11.9-19c11.6-0.3,21.5-10.7,26.9-17.6c0.1,1.4,0.1,2.8,0.1,4.3h0
										c0,0,6.7,17.8,7.5,18.6C468.1,423.2,444.7,436.1,444.7,436.1z"/>
									<path id="XMLID_41_" class="st7" d="M437.9,344.5c0.6,11,1.7,21.7,4.4,32.5c0.2,0.9-1.2,1.3-1.4,0.4
										c-2.8-11-4.6-22.4-4.2-33.8L437.9,344.5z"/>
								</g>
								<path id="XMLID_43_" class="st58" d="M459.8,402.8c0,0-9.7,20.5-34.2,33.8l17.1,17.1l44.1-21.9L459.8,402.8z"/>
							</g>
						</g>
						<g id="XMLID_47_">
							<path id="XMLID_52_" class="st58" d="M730.3,430.8h-52.6l-59.1,2.1c0,0,0.5-115.8,12.3-146.9c0,0,30,14.4,47.2,27.5
								c5.3,4,9.4,7.9,11,11.2C696.2,338.8,730.3,430.8,730.3,430.8z"/>
							<path id="XMLID_50_" class="st59" d="M730.3,430.8h-60.7c-4.5-35.2-3.8-102.7,1.9-112.5c1.9-3.3,4.2-4.6,6.6-4.8
								c5.3,4,9.4,7.9,11,11.2C696.2,338.8,730.3,430.8,730.3,430.8z"/>
						</g>
						<g id="XMLID_45_">
							<path id="XMLID_46_" class="st65" d="M758.1,437.1c0,0,4.6-22.6-6.6-29.8c-11.1-7.2-15.7,13.1-15.7,13.1l9.7,14.1
								L758.1,437.1z"/>
							<g id="XMLID_48_">
								<path id="XMLID_60_" class="st66" d="M741.1,389.9c0.4-0.6,4.3-23.3,15.7-31.5c11.5-8.2,26-28.4,28.9-27.6
									c2.9,0.8-13.6,52.2-13.6,52.2L741.1,389.9z"/>
								<path id="XMLID_287_" class="st56" d="M750.9,380.2c0,0,112.6-174.4,116.2-173.5c3.6,0.9-108.9,177.7-108.9,177.7
									L750.9,380.2z"/>
								<g id="XMLID_288_">
									<path id="XMLID_289_" class="st8" d="M808.2,372.8c-1.9,10.9-52.3,45.4-52.3,45.4l-1,1.1l-12.8,14.3l-14.9-27.7l8.4-10.4
										l-0.3-0.4c0.6-2.3,1.4-4.3,2.5-6c8-13.9,27.1-13.1,27.1-13.1s-6.4-25.4-3-29.2c2.2-2.5,5.8,0.7,6.1,1.1
										c-0.3-0.4-4-5.8,0.8-8.5c4.5-2.5,16,26.1,16.8,28c-0.4-1.9-7.6-34.1-2.7-41.4c5.1-7.5,12.9,32.5,12.9,32.5s2-42.6,7-44.9
										C807.8,311,810.1,361.8,808.2,372.8z"/>
									<path id="XMLID_290_" class="st66" d="M754.9,419.2l-12.8,14.3l-14.9-27.7l8.4-10.4l-0.3-0.4c0.6-2.3,1.4-4.3,2.5-6
										C739.8,398.6,744.6,412.8,754.9,419.2z"/>
									<path id="XMLID_291_" class="st66" d="M767.8,347.6L767.8,347.6c6.4,9,9.5,19.5,12.5,30.2c0.3,1-1.3,1.4-1.6,0.4
										c-3-11.1-6.3-22.3-12.8-31.9L767.8,347.6z"/>
								</g>
							</g>
							<path id="XMLID_292_" class="st58" d="M691.6,429.1c1.4,0,45.1-37.8,45.1-37.8s3.5,41.4,21.4,46L739,451.7L691.6,429.1z"/>
						</g>
					</g>
				</g>
			</g>
		</g>
		<g id="XMLID_320_">
			<polyline id="XMLID_321_" class="st67" points="309.3,310.9 290.4,267.1 265.6,281.6 249.3,232.7 227.1,265.8 204.4,206.3 			"/>
			<path id="XMLID_323_" class="st44" d="M199,192.1c-0.2,1.7-5.5,31.1-5.5,31.1l31.9-13.4L199,192.1z"/>
		</g>
	</g>
</g>
</svg>
