<?xml version="1.0" encoding="utf-8"?>
<!-- Generator: Adobe Illustrator 23.0.1, SVG Export Plug-In . SVG Version: 6.00 Build 0)  -->
<svg version="1.1" id="Layer_1" xmlns="http://www.w3.org/2000/svg" xmlns:xlink="http://www.w3.org/1999/xlink" x="0px" y="0px"
	 viewBox="0 0 32 32" style="enable-background:new 0 0 32 32;" xml:space="preserve">
<style type="text/css">
	.st0{fill:#3F3744;}
	.st1{fill:#5F5260;}
	.st2{fill:#F9AB4E;}
	.st3{fill:#FFE19F;}
	.st4{fill:#FCD772;}
</style>
<g id="XMLID_303_">
	<g id="XMLID_302_">
		<path id="XMLID_297_" class="st0" d="M19.9,28.6c0,1.2-1.7,2.1-3.8,2.1c-2.1,0-3.8-1-3.8-2.2c0-1.2,1.7-2.1,3.8-2.1
			C18.2,26.5,19.9,27.4,19.9,28.6z"/>
		<polygon id="XMLID_322_" class="st1" points="21.9,15.8 21.4,20 21.4,20.6 21.3,21.8 21.2,22.4 21.1,23.5 21,24.1 20.9,25.3 
			20.8,25.9 20.7,27 20.6,27.6 20.5,28.6 11.7,28.6 11.6,27.6 11.5,27 11.3,25.8 11.3,25.2 11.1,24.1 11,23.5 10.9,22.3 10.8,21.7 
			10.7,20.6 10.6,20 10.1,15.8 		"/>
		<g id="XMLID_299_">
			<polygon id="XMLID_309_" class="st0" points="21.4,20 21.4,20.6 10.7,20.6 10.6,20 			"/>
			<polygon id="XMLID_305_" class="st0" points="10.8,21.7 21.3,21.8 21.2,22.4 10.9,22.3 			"/>
			<polygon id="XMLID_307_" class="st0" points="21.1,23.5 21,24.1 11.1,24.1 11,23.5 			"/>
			<polygon id="XMLID_306_" class="st0" points="20.9,25.3 20.8,25.9 11.3,25.8 11.3,25.2 			"/>
			<polygon id="XMLID_312_" class="st0" points="20.7,27 20.6,27.6 11.6,27.6 11.5,27 			"/>
		</g>
	</g>
	<g id="XMLID_295_">
		<path id="XMLID_315_" class="st2" d="M25.9,10.5c0,4.8-3.6,7.8-8.2,8.4c-0.2,0-0.4,0.1-0.6,0.1c-0.4,0-0.8,0-1.2,0
			c-0.6,0-1.1,0-1.7-0.1c-0.2,0-0.4-0.1-0.6-0.1c-4.3-0.8-7.4-3.8-7.3-8.4c0-5.4,4.4-9.8,9.8-9.8C21.6,0.7,25.9,5.1,25.9,10.5z"/>
		<g id="XMLID_298_">
			<path id="XMLID_310_" class="st3" d="M21.6,10.7c0,1.7-1.6,3.9-3.7,5.3l-0.2,3c-0.2,0-0.4,0.1-0.6,0.1l0.2-3.4l0.1-0.1
				c2-1.2,3.5-3.4,3.5-4.9c0-0.6-0.3-1.1-0.8-1.5C19.8,9,19.4,8.9,19,9c-1.6,0.4-3,3-3,3l-0.3,0.5l-0.2-0.5c0,0-1.1-2.5-2.6-2.8
				c-0.5-0.1-0.9,0-1.4,0.4c-0.4,0.3-0.6,0.8-0.6,1.2c0,1.9,2.9,4.4,2.9,4.4l0.1,0.1l0.4,3.5c-0.2,0-0.4-0.1-0.6-0.1l-0.4-3.2
				c-0.5-0.4-3-2.7-3-4.8c0-0.7,0.3-1.2,0.8-1.7c0.6-0.5,1.2-0.7,1.9-0.6c1.3,0.3,2.3,1.8,2.7,2.6c0.5-0.8,1.7-2.5,3.1-2.9
				c0.6-0.2,1.2-0.1,1.7,0.2C21.2,9.1,21.6,9.8,21.6,10.7z"/>
		</g>
		<path id="XMLID_296_" class="st4" d="M8.1,7.1c0.2-0.8,0.6-1.6,1.2-2.2c1.1-1.3,3.4-3.5,7.1-3.3c4.2,0.2-1,0.5-4.2,2.6
			C9.3,6,7.4,9.8,8.1,7.1z"/>
	</g>
</g>
</svg>
